# xmcd
#
# Track frame offsets:
#	182
#	33027
#	62897
#	89520
#	107850
#	129525
#	152507
#	181332
#	206220
#	226725
#	245667
#
# Disc length: 3709 seconds
#
# Revision: 0
# Processed by: cddbd v1.5.2PL0 Copyright (c) Steve Scherf et al.
# Submitted via: EasyCDDAExtractor 16.0.9.1
#
DISCID=910e7b0b
DTITLE=The Creatures - The History Of Italian Dance Music Vol. 03 
DYEAR=1900
DGENRE=Dance
TTITLE0=Machine's Drama
TTITLE1=Expansions
TTITLE2=Dance Of The Silver Girls
TTITLE3=Kid Robot Dance
TTITLE4=The Other World's Robots
TTITLE5=Starting From Here
TTITLE6=Belive In Yourself
TTITLE7=Ispiration
TTITLE8=Aida
TTITLE9=Digital Rebel
TTITLE10=The Amazing Run In The Tube
EXTD=
EXTT0=
EXTT1=
EXTT2=
EXTT3=
EXTT4=
EXTT5=
EXTT6=
EXTT7=
EXTT8=
EXTT9=
EXTT10=
PLAYORDER=
